<?xml version="1.0" encoding="UTF-8"?>
<svg xmlns="http://www.w3.org/2000/svg" width="1400" height="1000" version="1.1">
	<text x="700" y="47" font-family="times" font-size="55" font-weight="bold" text-anchor="middle" style="color:#3e576f;fill:#3e576f">Diego Oliveira</text>
	<g font-size="20">
	    <text y="75">100%</text>
	    <text y="145">90%</text>
	    <text y="215">80%</text>
	    <text y="285">70%</text>
	    <text y="355">60%</text>
	    <text y="425">50%</text>
	    <text y="495">40%</text>
	    <text y="565">30%</text>
	    <text y="635">20%</text>
	    <text y="705">10%</text>
	    <text y="775">0%</text>
	</g>
	<g stroke="#C0C0C0">
	    <line x1="50" x2="1750" y1="70" y2="70" style="z-index:-1;opacity: 0.5"/>
	    <line x1="50" x2="1750" y1="140" y2="140" style="z-index:-1;opacity: 0.5"/>
	    <line x1="50" x2="1750" y1="210" y2="210" style="z-index:-1;opacity: 0.5"/>
	    <line x1="50" x2="1750" y1="280" y2="280" style="z-index:-1;opacity: 0.5"/>
	    <line x1="50" x2="1750" y1="350" y2="350" style="z-index:-1;opacity: 0.5"/>
	    <line x1="50" x2="1750" y1="420" y2="420" style="z-index:-1;opacity: 0.5"/>
	    <line x1="50" x2="1750" y1="490" y2="490" style="z-index:-1;opacity: 0.5"/>
	    <line x1="50" x2="1750" y1="560" y2="560" style="z-index:-1;opacity: 0.5"/>
	    <line x1="50" x2="1750" y1="630" y2="630" style="z-index:-1;opacity: 0.5"/>
	    <line x1="50" x2="1750" y1="700" y2="700" style="z-index:-1;opacity: 0.5"/>
	    <line x1="50" x2="1750" y1="770" y2="770" style="z-index:-1;opacity: 0.5"/>
	</g>
	<g fill="#a2be67"><rect width="50" height="400" x="50" y="370" style="z-index:1000;opacity: 0.8"/>
<rect width="50" height="420" x="250" y="350" style="z-index:1000;opacity: 0.8"/>
<rect width="50" height="476" x="450" y="294" style="z-index:1000;opacity: 0.8"/>
<rect width="50" height="560" x="650" y="210" style="z-index:1000;opacity: 0.8"/>
<rect width="50" height="315" x="850" y="455" style="z-index:1000;opacity: 0.8"/>
<rect width="50" height="455" x="1050" y="315" style="z-index:1000;opacity: 0.8"/>
<rect width="50" height="540" x="1250" y="230" style="z-index:1000;opacity: 0.8"/>
<rect width="50" height="580" x="120" y="190" style="z-index:1000;opacity: 0.8"/>
<rect width="50" height="568.75" x="320" y="201.25" style="z-index:1000;opacity: 0.8"/>
<rect width="50" height="616" x="520" y="154" style="z-index:1000;opacity: 0.8"/>
<rect width="50" height="653.33" x="720" y="116.67" style="z-index:1000;opacity: 0.8"/>
<rect width="50" height="542.5" x="920" y="227.5" style="z-index:1000;opacity: 0.8"/>
<rect width="50" height="490" x="1120" y="280" style="z-index:1000;opacity: 0.8"/>
<rect width="50" height="580" x="1320" y="190" style="z-index:1000;opacity: 0.8"/>
</g>
<g fill="#C0C0C0">
<rect width="50" height="300" x="50" y="70" style="z-index:1000;opacity: 0.8" />
<rect width="50" height="280" x="250" y="70" style="z-index:1000;opacity: 0.8" />
<rect width="50" height="224" x="450" y="70" style="z-index:1000;opacity: 0.8" />
<rect width="50" height="140" x="650" y="70" style="z-index:1000;opacity: 0.8" />
<rect width="50" height="385" x="850" y="70" style="z-index:1000;opacity: 0.8" fill="#F55"/>
<rect width="50" height="245" x="1050" y="70" style="z-index:1000;opacity: 0.8" />
<rect width="50" height="160" x="1250" y="70" style="z-index:1000;opacity: 0.8" />
<rect width="50" height="120" x="120" y="70" style="z-index:1000;opacity: 0.8" />
<rect width="50" height="131.25" x="320" y="70" style="z-index:1000;opacity: 0.8" />
<rect width="50" height="84" x="520" y="70" style="z-index:1000;opacity: 0.8" />
<rect width="50" height="46.67" x="720" y="70" style="z-index:1000;opacity: 0.8" />
<rect width="50" height="157.5" x="920" y="70" style="z-index:1000;opacity: 0.8" />
<rect width="50" height="210" x="1120" y="70" style="z-index:1000;opacity: 0.8" fill="#F55"/>
<rect width="50" height="120" x="1320" y="70" style="z-index:1000;opacity: 0.8" />
</g>
<g style="font-size:15px;fill:#FFF;font-weight:bold;z-index:1000;">
<text text-anchor="middle" x="75" y="570">57.14%</text>
<text text-anchor="middle" x="75" y="220">42.86%</text>
<text text-anchor="middle" x="275" y="560">60%</text>
<text text-anchor="middle" x="275" y="210">40%</text>
<text text-anchor="middle" x="475" y="532">68%</text>
<text text-anchor="middle" x="475" y="182">32%</text>
<text text-anchor="middle" x="675" y="490">80%</text>
<text text-anchor="middle" x="675" y="140">20%</text>
<text text-anchor="middle" x="875" y="613">45%</text>
<text text-anchor="middle" x="875" y="263">55%</text>
<text text-anchor="middle" x="1075" y="543">65%</text>
<text text-anchor="middle" x="1075" y="193">35%</text>
<text text-anchor="middle" x="1275" y="500">77.14%</text>
<text text-anchor="middle" x="1275" y="150">22.86%</text>
<text text-anchor="middle" x="145" y="480">82.86%</text>
<text text-anchor="middle" x="145" y="130">17.14%</text>
<text text-anchor="middle" x="345" y="485.25">81.25%</text>
<text text-anchor="middle" x="345" y="136">18.75%</text>
<text text-anchor="middle" x="545" y="462">88%</text>
<text text-anchor="middle" x="545" y="112">12%</text>
<text text-anchor="middle" x="745" y="443.67">93.33%</text>
<text text-anchor="middle" x="745" y="93">6.67%</text>
<text text-anchor="middle" x="945" y="498.5">77.5%</text>
<text text-anchor="middle" x="945" y="149">22.5%</text>
<text text-anchor="middle" x="1145" y="525">70%</text>
<text text-anchor="middle" x="1145" y="175">30%</text>
<text text-anchor="middle" x="1345" y="480">82.86%</text>
<text text-anchor="middle" x="1345" y="130">17.14%</text>

		    </g>
		    <g style="font-family:'lucida grande', 'lucida sans unicode', verdana, arial, helvetica, sans-serif;font-size:14px;">
		        <text y="800" text-anchor="middle"><tspan x="100">Comunicação</tspan><tspan x="300">Planejamento</tspan><tspan x="500">Gestão do Tempo e  Produtividade</tspan><tspan x="700">Inteligencia Emocional</tspan><tspan x="900">Foco em Resultado</tspan><tspan x="1100">Visão Sistemica</tspan><tspan x="1300">Confiança</tspan></text>
		    </g>
		    <rect x="580" y="850" width="40" height="30" fill="#a2be67"/>
		    <rect x="580" y="900" width="40" height="30" fill="#C0C0C0"/>
		    <rect x="580" y="950" width="40" height="30" fill="#F55"/>
		    <g style="font-family:'lucida grande', 'lucida sans unicode', verdana, arial, helvetica, sans-serif;font-size:18px;">
		        <text x="630" y="870">Grau de Compentência</text>
		        <text x="630" y="920">Gap a ser desenvolvido</text>
		        <text x="630" y="970">Área Foco (pontos críticos)</text>
		    </g>
		</svg>