<?xml version="1.0" encoding="UTF-8"?>
<svg xmlns="http://www.w3.org/2000/svg" width="1400" height="1000" version="1.1">
	<text x="700" y="47" font-family="times" font-size="55" font-weight="bold" text-anchor="middle" style="color:#3e576f;fill:#3e576f">Diego Oliveira</text>
	<g font-size="20">
	    <text y="75">100%</text>
	    <text y="145">90%</text>
	    <text y="215">80%</text>
	    <text y="285">70%</text>
	    <text y="355">60%</text>
	    <text y="425">50%</text>
	    <text y="495">40%</text>
	    <text y="565">30%</text>
	    <text y="635">20%</text>
	    <text y="705">10%</text>
	    <text y="775">0%</text>
	</g>
	<g stroke="#C0C0C0">
	    <line x1="50" x2="1750" y1="70" y2="70" style="z-index:-1;opacity: 0.5"/>
	    <line x1="50" x2="1750" y1="140" y2="140" style="z-index:-1;opacity: 0.5"/>
	    <line x1="50" x2="1750" y1="210" y2="210" style="z-index:-1;opacity: 0.5"/>
	    <line x1="50" x2="1750" y1="280" y2="280" style="z-index:-1;opacity: 0.5"/>
	    <line x1="50" x2="1750" y1="350" y2="350" style="z-index:-1;opacity: 0.5"/>
	    <line x1="50" x2="1750" y1="420" y2="420" style="z-index:-1;opacity: 0.5"/>
	    <line x1="50" x2="1750" y1="490" y2="490" style="z-index:-1;opacity: 0.5"/>
	    <line x1="50" x2="1750" y1="560" y2="560" style="z-index:-1;opacity: 0.5"/>
	    <line x1="50" x2="1750" y1="630" y2="630" style="z-index:-1;opacity: 0.5"/>
	    <line x1="50" x2="1750" y1="700" y2="700" style="z-index:-1;opacity: 0.5"/>
	    <line x1="50" x2="1750" y1="770" y2="770" style="z-index:-1;opacity: 0.5"/>
	</g>
	<g fill="#a2be67"><rect width="50" height="420" x="50" y="350" style="z-index:1000;opacity: 0.8"/>
<rect width="50" height="420" x="250" y="350" style="z-index:1000;opacity: 0.8"/>
<rect width="50" height="420" x="450" y="350" style="z-index:1000;opacity: 0.8"/>
<rect width="50" height="420" x="650" y="350" style="z-index:1000;opacity: 0.8"/>
<rect width="50" height="420" x="850" y="350" style="z-index:1000;opacity: 0.8"/>
<rect width="50" height="420" x="1050" y="350" style="z-index:1000;opacity: 0.8"/>
<rect width="50" height="380" x="1250" y="390" style="z-index:1000;opacity: 0.8"/>
<rect width="50" height="490" x="120" y="280" style="z-index:1000;opacity: 0.8"/>
<rect width="50" height="490" x="320" y="280" style="z-index:1000;opacity: 0.8"/>
<rect width="50" height="560" x="520" y="210" style="z-index:1000;opacity: 0.8"/>
<rect width="50" height="490" x="720" y="280" style="z-index:1000;opacity: 0.8"/>
<rect width="50" height="542.5" x="920" y="227.5" style="z-index:1000;opacity: 0.8"/>
<rect width="50" height="560" x="1120" y="210" style="z-index:1000;opacity: 0.8"/>
<rect width="50" height="530" x="1320" y="240" style="z-index:1000;opacity: 0.8"/>
</g>
<g fill="#C0C0C0">
<rect width="50" height="280" x="50" y="70" style="z-index:1000;opacity: 0.8" />
<rect width="50" height="280" x="250" y="70" style="z-index:1000;opacity: 0.8" />
<rect width="50" height="280" x="450" y="70" style="z-index:1000;opacity: 0.8" />
<rect width="50" height="280" x="650" y="70" style="z-index:1000;opacity: 0.8" />
<rect width="50" height="280" x="850" y="70" style="z-index:1000;opacity: 0.8" />
<rect width="50" height="280" x="1050" y="70" style="z-index:1000;opacity: 0.8" />
<rect width="50" height="320" x="1250" y="70" style="z-index:1000;opacity: 0.8" fill="#F55"/>
<rect width="50" height="210" x="120" y="70" style="z-index:1000;opacity: 0.8" fill="#F55"/>
<rect width="50" height="210" x="320" y="70" style="z-index:1000;opacity: 0.8" fill="#F55"/>
<rect width="50" height="140" x="520" y="70" style="z-index:1000;opacity: 0.8" />
<rect width="50" height="210" x="720" y="70" style="z-index:1000;opacity: 0.8" fill="#F55"/>
<rect width="50" height="157.5" x="920" y="70" style="z-index:1000;opacity: 0.8" />
<rect width="50" height="140" x="1120" y="70" style="z-index:1000;opacity: 0.8" />
<rect width="50" height="170" x="1320" y="70" style="z-index:1000;opacity: 0.8" />
</g>
<g style="font-size:15px;fill:#FFF;font-weight:bold;z-index:1000;">
<text text-anchor="middle" x="75" y="560">60%</text>
<text text-anchor="middle" x="75" y="210">40%</text>
<text text-anchor="middle" x="275" y="560">60%</text>
<text text-anchor="middle" x="275" y="210">40%</text>
<text text-anchor="middle" x="475" y="560">60%</text>
<text text-anchor="middle" x="475" y="210">40%</text>
<text text-anchor="middle" x="675" y="560">60%</text>
<text text-anchor="middle" x="675" y="210">40%</text>
<text text-anchor="middle" x="875" y="560">60%</text>
<text text-anchor="middle" x="875" y="210">40%</text>
<text text-anchor="middle" x="1075" y="560">60%</text>
<text text-anchor="middle" x="1075" y="210">40%</text>
<text text-anchor="middle" x="1275" y="580">54.29%</text>
<text text-anchor="middle" x="1275" y="230">45.71%</text>
<text text-anchor="middle" x="145" y="525">70%</text>
<text text-anchor="middle" x="145" y="175">30%</text>
<text text-anchor="middle" x="345" y="525">70%</text>
<text text-anchor="middle" x="345" y="175">30%</text>
<text text-anchor="middle" x="545" y="490">80%</text>
<text text-anchor="middle" x="545" y="140">20%</text>
<text text-anchor="middle" x="745" y="525">70%</text>
<text text-anchor="middle" x="745" y="175">30%</text>
<text text-anchor="middle" x="945" y="498.5">77.5%</text>
<text text-anchor="middle" x="945" y="149">22.5%</text>
<text text-anchor="middle" x="1145" y="490">80%</text>
<text text-anchor="middle" x="1145" y="140">20%</text>
<text text-anchor="middle" x="1345" y="505">75.71%</text>
<text text-anchor="middle" x="1345" y="155">24.29%</text>

		    </g>
		    <g style="font-family:'lucida grande', 'lucida sans unicode', verdana, arial, helvetica, sans-serif;font-size:14px;">
		        <text y="800" text-anchor="middle"><tspan x="100">Comunicação</tspan><tspan x="300">Planejamento</tspan><tspan x="500">Gestão do Tempo e  Produtividade</tspan><tspan x="700">Inteligencia Emocional</tspan><tspan x="900">Foco em Resultado</tspan><tspan x="1100">Visão Sistemica</tspan><tspan x="1300">Confiança</tspan></text>
		    </g>
		    <rect x="580" y="850" width="40" height="30" fill="#a2be67"/>
		    <rect x="580" y="900" width="40" height="30" fill="#C0C0C0"/>
		    <rect x="580" y="950" width="40" height="30" fill="#F55"/>
		    <g style="font-family:'lucida grande', 'lucida sans unicode', verdana, arial, helvetica, sans-serif;font-size:18px;">
		        <text x="630" y="870">Grau de Compentência</text>
		        <text x="630" y="920">Gap a ser desenvolvido</text>
		        <text x="630" y="970">Área Foco (pontos críticos)</text>
		    </g>
		</svg>