<?xml version="1.0" encoding="UTF-8"?>
<svg xmlns="http://www.w3.org/2000/svg" width="1400" height="1000" version="1.1">
	<text x="700" y="47" font-family="times" font-size="55" font-weight="bold" text-anchor="middle" style="color:#3e576f;fill:#3e576f">Thomerson Roncally Araújo Teixeira</text>
	<g font-size="20">
	    <text y="75">100%</text>
	    <text y="145">90%</text>
	    <text y="215">80%</text>
	    <text y="285">70%</text>
	    <text y="355">60%</text>
	    <text y="425">50%</text>
	    <text y="495">40%</text>
	    <text y="565">30%</text>
	    <text y="635">20%</text>
	    <text y="705">10%</text>
	    <text y="775">0%</text>
	</g>
	<g stroke="#C0C0C0">
	    <line x1="50" x2="1750" y1="70" y2="70" style="z-index:-1;opacity: 0.5"/>
	    <line x1="50" x2="1750" y1="140" y2="140" style="z-index:-1;opacity: 0.5"/>
	    <line x1="50" x2="1750" y1="210" y2="210" style="z-index:-1;opacity: 0.5"/>
	    <line x1="50" x2="1750" y1="280" y2="280" style="z-index:-1;opacity: 0.5"/>
	    <line x1="50" x2="1750" y1="350" y2="350" style="z-index:-1;opacity: 0.5"/>
	    <line x1="50" x2="1750" y1="420" y2="420" style="z-index:-1;opacity: 0.5"/>
	    <line x1="50" x2="1750" y1="490" y2="490" style="z-index:-1;opacity: 0.5"/>
	    <line x1="50" x2="1750" y1="560" y2="560" style="z-index:-1;opacity: 0.5"/>
	    <line x1="50" x2="1750" y1="630" y2="630" style="z-index:-1;opacity: 0.5"/>
	    <line x1="50" x2="1750" y1="700" y2="700" style="z-index:-1;opacity: 0.5"/>
	    <line x1="50" x2="1750" y1="770" y2="770" style="z-index:-1;opacity: 0.5"/>
	</g>
	<g fill="#a2be67"><rect width="50" height="440" x="50" y="330" style="z-index:1000;opacity: 0.8"/>
<rect width="50" height="490" x="250" y="280" style="z-index:1000;opacity: 0.8"/>
<rect width="50" height="434" x="450" y="336" style="z-index:1000;opacity: 0.8"/>
<rect width="50" height="373.33" x="650" y="396.67" style="z-index:1000;opacity: 0.8"/>
<rect width="50" height="490" x="850" y="280" style="z-index:1000;opacity: 0.8"/>
<rect width="50" height="455" x="1050" y="315" style="z-index:1000;opacity: 0.8"/>
<rect width="50" height="260" x="1250" y="510" style="z-index:1000;opacity: 0.8"/>
</g>
<g fill="#C0C0C0">
<rect width="50" height="260" x="50" y="70" style="z-index:1000;opacity: 0.8" />
<rect width="50" height="210" x="250" y="70" style="z-index:1000;opacity: 0.8" />
<rect width="50" height="266" x="450" y="70" style="z-index:1000;opacity: 0.8" />
<rect width="50" height="326.67" x="650" y="70" style="z-index:1000;opacity: 0.8" />
<rect width="50" height="210" x="850" y="70" style="z-index:1000;opacity: 0.8" />
<rect width="50" height="245" x="1050" y="70" style="z-index:1000;opacity: 0.8" />
<rect width="50" height="440" x="1250" y="70" style="z-index:1000;opacity: 0.8" fill="#F55"/>
</g>
<g style="font-size:15px;fill:#FFF;font-weight:bold;z-index:1000;">
<text text-anchor="middle" x="75" y="550">62.86%</text>
<text text-anchor="middle" x="75" y="200">37.14%</text>
<text text-anchor="middle" x="275" y="525">70%</text>
<text text-anchor="middle" x="275" y="175">30%</text>
<text text-anchor="middle" x="475" y="553">62%</text>
<text text-anchor="middle" x="475" y="203">38%</text>
<text text-anchor="middle" x="675" y="583.67">53.33%</text>
<text text-anchor="middle" x="675" y="233">46.67%</text>
<text text-anchor="middle" x="875" y="525">70%</text>
<text text-anchor="middle" x="875" y="175">30%</text>
<text text-anchor="middle" x="1075" y="543">65%</text>
<text text-anchor="middle" x="1075" y="193">35%</text>
<text text-anchor="middle" x="1275" y="640">37.14%</text>
<text text-anchor="middle" x="1275" y="290">62.86%</text>

		    </g>
		    <g style="font-family:'lucida grande', 'lucida sans unicode', verdana, arial, helvetica, sans-serif;font-size:14px;">
		        <text y="800" text-anchor="middle"><tspan x="100">Comunicação</tspan><tspan x="300">Planejamento</tspan><tspan x="500">Gestão do Tempo e  Produtividade</tspan><tspan x="700">Inteligencia Emocional</tspan><tspan x="900">Foco em Resultado</tspan><tspan x="1100">Visão Sistemica</tspan><tspan x="1300">Confiança</tspan></text>
		    </g>
		    <rect x="580" y="850" width="40" height="30" fill="#a2be67"/>
		    <rect x="580" y="900" width="40" height="30" fill="#C0C0C0"/>
		    <rect x="580" y="950" width="40" height="30" fill="#F55"/>
		    <g style="font-family:'lucida grande', 'lucida sans unicode', verdana, arial, helvetica, sans-serif;font-size:18px;">
		        <text x="630" y="870">Grau de Compentência</text>
		        <text x="630" y="920">Gap a ser desenvolvido</text>
		        <text x="630" y="970">Área Foco (pontos críticos)</text>
		    </g>
		</svg>